<?xml version="1.0" encoding="UTF-8" standalone="no"?>
<!-- Created with Inkscape (http://www.inkscape.org/) -->

<svg
   width="154.88463mm"
   height="200.65108mm"
   viewBox="0 0 154.88463 200.65108"
   version="1.1"
   id="svg1"
   xmlns="http://www.w3.org/2000/svg"
   xmlns:svg="http://www.w3.org/2000/svg">
  <defs
     id="defs1" />
  <g
     id="layer1"
     transform="translate(-27.789553,-82.965643)">
    <path
       style="fill:#ffffff;fill-opacity:0;stroke:#000000;stroke-width:2;stroke-linecap:round;stroke-linejoin:round;stroke-dasharray:none;stroke-opacity:1"
       d="m 29.035905,83.965639 c 0,82.997661 0,82.997661 0,82.997661 H 181.67419"
       id="path1" />
    <path
       style="fill:#ffffff;fill-opacity:0;stroke:#000000;stroke-width:2;stroke-linecap:round;stroke-linejoin:round;stroke-dasharray:none;stroke-opacity:1"
       d="m 28.789553,196.88772 c 0,83.49036 0,83.49036 0,83.49036 h 86.184777"
       id="path1-9" />
    <rect
       style="fill:#80bdff;fill-opacity:1;stroke:#000000;stroke-width:2;stroke-linecap:round;stroke-linejoin:round;stroke-dasharray:none;stroke-opacity:1"
       id="rect1"
       width="11.956055"
       height="45.880318"
       x="43.436867"
       y="121.12003" />
    <rect
       style="fill:#80bdff;fill-opacity:1;stroke:#000000;stroke-width:2;stroke-linecap:round;stroke-linejoin:round;stroke-dasharray:none;stroke-opacity:1"
       id="rect1-8"
       width="11.601396"
       height="65.539055"
       x="66.081245"
       y="101.28396" />
    <rect
       style="fill:#80bdff;fill-opacity:1;stroke:#000000;stroke-width:2;stroke-linecap:round;stroke-linejoin:round;stroke-dasharray:none;stroke-opacity:1"
       id="rect1-8-1"
       width="11.842217"
       height="51.744507"
       x="88.427879"
       y="115.19891" />
    <rect
       style="fill:#80bdff;fill-opacity:1;stroke:#000000;stroke-width:2;stroke-linecap:round;stroke-linejoin:round;stroke-dasharray:none;stroke-opacity:1"
       id="rect1-8-1-7"
       width="12.258223"
       height="32.249023"
       x="111.01534"
       y="134.5899" />
    <rect
       style="fill:#80bdff;fill-opacity:1;stroke:#000000;stroke-width:2;stroke-linecap:round;stroke-linejoin:round;stroke-dasharray:none;stroke-opacity:1"
       id="rect1-8-1-7-2"
       width="12.065061"
       height="40.644886"
       x="133.25053"
       y="126.22742" />
    <rect
       style="fill:#80bdff;fill-opacity:1;stroke:#000000;stroke-width:2;stroke-linecap:round;stroke-linejoin:round;stroke-dasharray:none;stroke-opacity:1"
       id="rect1-8-1-7-2-1"
       width="11.69997"
       height="59.659603"
       x="155.90013"
       y="107.2127" />
    <path
       style="fill:#ffffff;fill-opacity:0;stroke:#000000;stroke-width:2;stroke-linecap:round;stroke-linejoin:round;stroke-dasharray:none;stroke-opacity:1"
       d="m 28.789553,249.51768 20.625339,-18.194 22.467049,28.33065 20.127703,-17.15434 21.832796,-7.53751"
       id="path4" />
    <path
       style="fill:#ffffff;fill-opacity:0;stroke:#000000;stroke-width:2;stroke-linecap:round;stroke-linejoin:round;stroke-dasharray:none;stroke-opacity:1"
       d="m 28.789553,223.52625 20.625339,30.9298 21.901102,14.29529 19.653991,-9.87675 22.092715,10.39657"
       id="path5" />
    <ellipse
       style="fill:#3940ff;fill-opacity:1;stroke:#000000;stroke-width:2;stroke-linecap:round;stroke-linejoin:round;stroke-dasharray:none;stroke-opacity:1"
       id="path6"
       cx="157.07167"
       cy="210.92041"
       rx="20.106272"
       ry="20.098207" />
    <path
       style="fill:#80bdff;fill-opacity:1;stroke:#000000;stroke-width:2;stroke-linecap:round;stroke-linejoin:round;stroke-dasharray:none;stroke-opacity:1"
       id="path6-9"
       d="m 177.17794,210.92041 a 20.106272,20.098207 0 0 1 -12.41193,18.56832 20.106272,20.098207 0 0 1 -21.91162,-4.35674 20.106272,20.098207 0 0 1 -4.35849,-21.90283 20.106272,20.098207 0 0 1 18.57577,-12.40696 v 20.09821 z" />
    <path
       style="fill:#1183ff;fill-opacity:1;stroke:#000000;stroke-width:2;stroke-linecap:round;stroke-linejoin:round;stroke-dasharray:none;stroke-opacity:1"
       id="path6-7"
       d="m 177.17794,210.92041 a 20.106272,20.098207 0 0 1 -8.57379,16.46349 20.106272,20.098207 0 0 1 -18.40923,2.42265 l 6.87675,-18.88614 z" />
    <path
       style="fill:#1cd9ff;fill-opacity:1;stroke:#000000;stroke-width:2;stroke-linecap:round;stroke-linejoin:round;stroke-dasharray:none;stroke-opacity:1"
       id="path6-7-7"
       d="m 177.17794,210.92041 a 20.106272,20.098207 0 0 1 -2.69373,10.0491 l -17.41254,-10.0491 z" />
    <ellipse
       style="fill:#13a3ff;fill-opacity:1;stroke:#000000;stroke-width:2;stroke-linecap:round;stroke-linejoin:round;stroke-dasharray:none;stroke-opacity:1"
       id="path6-5"
       cx="157.07167"
       cy="262.51807"
       rx="20.106272"
       ry="20.098207" />
    <path
       style="fill:#5154ff;fill-opacity:1;stroke:#000000;stroke-width:2;stroke-linecap:round;stroke-linejoin:round;stroke-dasharray:none;stroke-opacity:1"
       id="path6-5-2"
       d="m 177.17794,262.51807 a 20.106272,20.098207 0 0 1 -18.93719,20.0642 20.106272,20.098207 0 0 1 -21.1394,-17.73094 20.106272,20.098207 0 0 1 16.4789,-22.12613 l 3.49142,19.79287 z" />
    <path
       style="fill:#519cff;fill-opacity:1;stroke:#000000;stroke-width:2;stroke-linecap:round;stroke-linejoin:round;stroke-dasharray:none;stroke-opacity:1"
       id="path6-5-1"
       d="m 177.17794,262.51807 a 20.106272,20.098207 0 0 1 -7.18221,15.39612 l -12.92406,-15.39612 z" />
  </g>
</svg>
