<?xml version="1.0" encoding="UTF-8" standalone="no"?>
<!-- Created with Inkscape (http://www.inkscape.org/) -->

<svg
   width="65.938889mm"
   height="75.158752mm"
   viewBox="0 0 65.938889 75.158752"
   version="1.1"
   id="svg1"
   xml:space="preserve"
   xmlns="http://www.w3.org/2000/svg"
   xmlns:svg="http://www.w3.org/2000/svg"><defs
     id="defs1" /><path
     style="fill:#acacac;fill-opacity:1;stroke:#000000;stroke-width:2;stroke-linejoin:bevel;stroke-dasharray:none;stroke-opacity:0"
     d="M 64.9389,19.70679 32.96945,37.57937 32.83949,74.28878 64.9389,56.09478 V 19.70679"
     id="path34" /><path
     style="fill:#ededed;fill-opacity:1;stroke:#000000;stroke-width:2;stroke-linejoin:bevel;stroke-dasharray:none;stroke-opacity:0"
     d="M 32.96945,37.57937 1.1299521,19.57683 0.99999412,55.96483 32.83949,74.28878 Z"
     id="path35" /><path
     style="fill:#ffffff;fill-opacity:1;stroke:#000000;stroke-width:2;stroke-linejoin:bevel;stroke-opacity:0"
     d="M 1.1299521,19.57683 32.96945,37.57937 64.9389,19.70679 33.0994,0.86300922 Z"
     id="path1" /><g
     id="layer1"
     transform="translate(-73.72535,-108.17102)"><path
       style="fill:#00ae7a;fill-opacity:0;stroke:#000000;stroke-width:2;stroke-linejoin:bevel;stroke-dasharray:none"
       d="m 74.855302,127.74785 -0.129956,36.388 31.839494,18.32395 32.09941,-18.194 v -36.38799 l -31.8395,-18.84378 z"
       id="path33" /><ellipse
       style="fill:#000000;fill-opacity:1;stroke:#000000;stroke-width:2;stroke-linejoin:bevel;stroke-dasharray:none;stroke-opacity:0"
       id="path36"
       cx="120.53522"
       cy="126.93562"
       rx="3.8337352"
       ry="2.3067391" /><ellipse
       style="fill:#000000;fill-opacity:1;stroke:#000000;stroke-width:2;stroke-linejoin:bevel;stroke-dasharray:none;stroke-opacity:0"
       id="ellipse36"
       cx="106.6948"
       cy="127.58541"
       rx="3.8337352"
       ry="2.3067391" /><ellipse
       style="fill:#000000;fill-opacity:1;stroke:#000000;stroke-width:2;stroke-linejoin:bevel;stroke-dasharray:none;stroke-opacity:0"
       id="ellipse37"
       cx="106.6948"
       cy="118.94326"
       rx="3.8337352"
       ry="2.3067391" /><ellipse
       style="fill:#000000;fill-opacity:1;stroke:#000000;stroke-width:2;stroke-linejoin:bevel;stroke-dasharray:none;stroke-opacity:0"
       id="ellipse38"
       cx="106.6948"
       cy="135.77271"
       rx="3.8337352"
       ry="2.3067391" /><ellipse
       style="fill:#000000;fill-opacity:1;stroke:#000000;stroke-width:2;stroke-linejoin:bevel;stroke-dasharray:none;stroke-opacity:0"
       id="ellipse39"
       cx="92.854385"
       cy="127.58541"
       rx="3.8337352"
       ry="2.3067391" /><path
       style="fill:#000000;fill-opacity:1;stroke:#000000;stroke-width:2;stroke-linejoin:bevel;stroke-dasharray:none;stroke-opacity:0"
       d="m 81.840499,145.29206 c -2.087445,-3.10284 0.477634,-6.50045 3.411374,-2.04682 2.421358,3.67579 -0.670525,6.1209 -3.411374,2.04682 z"
       id="path39" /><path
       style="fill:#000000;fill-opacity:1;stroke:#000000;stroke-width:2;stroke-linejoin:bevel;stroke-dasharray:none;stroke-opacity:0"
       d="m 94.598746,153.02451 c -2.087445,-3.10284 0.477634,-6.50045 3.411374,-2.04682 2.42136,3.67579 -0.670525,6.1209 -3.411374,2.04682 z"
       id="path40" /><path
       style="fill:#000000;fill-opacity:1;stroke:#000000;stroke-width:2;stroke-linejoin:bevel;stroke-dasharray:none;stroke-opacity:0"
       d="m 94.598746,153.02451 c -2.087445,-3.10284 0.477634,-6.50045 3.411374,-2.04682 2.42136,3.67579 -0.670525,6.1209 -3.411374,2.04682 z"
       id="path41" /><path
       style="fill:#000000;fill-opacity:1;stroke:#000000;stroke-width:2;stroke-linejoin:bevel;stroke-dasharray:none;stroke-opacity:0"
       d="m 81.8405,161.08185 c -2.087445,-3.10284 0.477634,-6.50045 3.411374,-2.04682 2.42136,3.67579 -0.670525,6.1209 -3.411374,2.04682 z"
       id="path42" /><path
       style="fill:#000000;fill-opacity:1;stroke:#000000;stroke-width:2;stroke-linejoin:bevel;stroke-dasharray:none;stroke-opacity:0"
       d="m 94.598746,168.55438 c -2.087445,-3.10284 0.477634,-6.50045 3.411374,-2.04682 2.42136,3.67579 -0.670525,6.1209 -3.411374,2.04682 z"
       id="path43" /><path
       style="fill:#000000;fill-opacity:1;stroke:#000000;stroke-width:2;stroke-linejoin:bevel;stroke-dasharray:none;stroke-opacity:0"
       d="m 118.82021,168.55438 c 2.08745,-3.10284 -0.47763,-6.50045 -3.41137,-2.04682 -2.42136,3.67579 0.67052,6.1209 3.41137,2.04682 z"
       id="path44" /><path
       style="fill:#000000;fill-opacity:1;stroke:#000000;stroke-width:2;stroke-linejoin:bevel;stroke-dasharray:none;stroke-opacity:0"
       d="m 125.18811,157.16073 c 2.08745,-3.10284 -0.47763,-6.50045 -3.41137,-2.04682 -2.42136,3.67579 0.67052,6.1209 3.41137,2.04682 z"
       id="path45" /><path
       style="fill:#000000;fill-opacity:1;stroke:#000000;stroke-width:2;stroke-linejoin:bevel;stroke-dasharray:none;stroke-opacity:0"
       d="m 131.62099,145.29206 c 2.08745,-3.10284 -0.47763,-6.50045 -3.41137,-2.04682 -2.42136,3.67579 0.67052,6.1209 3.41137,2.04682 z"
       id="path46" /></g></svg>
